Patient4_TMGait_0pt7_02_right_12_EMG.mot
version=1
nRows=17
nColumns=33
inDegrees=no
endheader
time	1LAddLong	2LGlutMax	3LGlutMed	4LIliopsoas	5LSemiMemb	6LBicFemLong	7LRecFem	8LVastMed	9LVastLat	10LGasMed	11LTibAnt	12lTibPost	13LPeroneusLong	14LSol	15LExtDigLong	16LFlexDigLong	17RAddLong	18RGlutMax	19RGlutMed	20RIliopsoas	21RSemiMemb	22RBicFemLong	23RRecFem	24RVastMed	25RVastLat	26RGasMed	27RTibAnt	28RTibPost	29RPeroneusLong	30RSol	31RExtDigLong	32RFlexDigLong
13.222	-0.011749	-0.62744	-0.01236	-0.018005	0.024719	0.000305	0.59372	0.053558	-0.050507	-0.051117	0.15686	0.020294	-0.02594	0.025024	0.64285	0.013428	-0.044098	-0.7164	-0.38406	-0.48477	0.2449	0.005646	0.008392	-0.031128	-0.35858	-0.06897	0.4805	-0.030823	0.18249	-0.23636	-0.001526	-0.025482
13.223	-0.001526	-0.5043	0.037689	-0.012665	0.021667	0.000305	0.49393	0.059662	-0.064545	-0.013428	-0.12558	0.027313	-0.11047	0.13809	0.55893	0.014954	-0.063782	-0.76462	-0.27786	-0.42053	0.3067	-0.48202	-0.52597	0.045319	-0.13397	0.086212	0.59769	0.14633	0.023193	-0.59326	-0.005798	-0.020142
13.224	-0.001526	-0.51239	0.074005	0.029755	0.025635	-0.019684	0.53101	0.023956	-0.050964	-0.005798	-0.28107	0.027466	-0.12589	0.11932	0.2124	0.006409	-0.044403	-0.91705	-0.32059	-0.31616	0.12589	-0.84412	-0.74509	0.084839	-0.045013	0.15518	-0.11505	0.012665	0.36667	-0.45746	-0.004425	-0.007019
13.225	-0.006104	-0.49057	0.12833	0.051117	0.032501	-0.019836	0.46295	0.031738	-0.036316	0.004425	0.075226	0.031586	-0.20493	0.04776	0.21957	-0.006409	-0.059967	-1.0512	-0.54031	0.033112	-0.088806	-0.69061	-0.61737	0.2681	0.088196	0.19287	-0.49667	-0.010834	0.52078	-0.34851	-0.003967	-0.010376
13.226	-0.007019	-0.45181	0.13825	0.024719	0.021973	-0.022888	0.31158	0.0354	-0.019531	-0.015717	-0.11841	0.022125	-0.09079	0.004883	-0.042877	0.00824	-0.000458	-1.0287	-0.71289	0.15091	-0.15488	-0.58258	-0.004883	0.15243	-0.053253	0.003052	-0.06897	0.029907	0.54581	-0.70709	-0.001221	-0.014038
13.227	0.000458	-0.38803	0.16861	0.012665	0.03006	-0.018158	0.10757	0.031281	-0.02655	0.011139	-0.392	0.029144	-0.006256	-0.11871	-0.17822	0.013885	0.046844	-1.0159	-1.0185	0.2124	-0.039215	-0.35858	0.41061	0.061798	-0.18066	-0.071564	0.47836	-0.027466	0.57632	-0.55893	-0.001068	-0.012512
13.228	-0.010529	-0.35706	0.20554	-0.004578	0.028992	-0.019531	-0.052338	0.031128	-0.043335	0.022278	-0.28229	0.026398	0.02655	-0.18158	-0.21942	0.00885	0.029449	-0.94406	-0.17181	0.1947	0.21545	0.18875	0.52307	0.099945	-0.16327	0.000763	0.58182	-0.049133	0.41489	-0.3273	-0.002289	-0.006409
13.229	-0.002747	-0.33722	0.21881	-0.011444	0.027313	-0.023193	-0.13336	0.037384	-0.03006	0.033875	-0.26947	0.025635	0.001221	-0.089722	-0.17548	0.017395	0.016174	-1.1014	-0.2562	0.084686	0.22781	0.032043	0.62164	0.080719	-0.18646	-0.12161	-0.61279	-0.088501	0.13123	-0.43991	-0.005646	-0.016632
13.23	-0.001984	-0.35004	0.26398	-0.02121	0.034485	-0.027008	-0.098724	0.020599	-0.003662	0.012512	-0.082703	0.03006	-0.12665	0.032654	-0.039673	0.00351	-0.003052	-1.2509	-0.57419	0.14496	0.15457	-0.12604	0.62134	0.15152	-0.16754	-0.1886	-0.71198	-0.0737	0.16403	-0.22492	-0.002747	-0.020447
13.231	0.000153	-0.25131	0.22934	0.01709	0.027466	-0.02243	0.02243	-0.002899	0.034485	0.007019	-0.001373	0.018005	-0.17136	0.10284	-0.084381	0.01297	-0.00885	-1.2572	-0.51514	0.055695	-0.18127	-0.23422	0.6958	0.027771	-0.18173	-0.19928	-0.61401	-0.050964	0.39963	-0.11185	-0.003052	-0.015411
13.232	-0.00473	-0.1767	0.18051	0.04364	0.028839	-0.009003	0.000763	-0.029602	0.040436	0.008392	-0.0737	0.028229	-0.112	0.12787	0.14587	0.012207	-0.058136	-1.2592	-0.017548	-0.037079	-0.51209	-0.16235	0.77728	0.019226	-0.17975	0.036163	-0.18082	-0.09491	0.45334	-0.40222	-0.002747	-0.028076
13.233	-0.00946	-0.099182	0.1535	0.033264	0.024567	-0.027466	-0.1741	-0.017548	0.053253	0.032196	-0.075073	0.028076	-0.10819	0.15595	0.014954	-0.011444	-0.059814	-1.2785	0.25482	-0.14923	-0.2594	-0.045319	0.89004	0.047913	-0.17334	0.11887	0.074158	-0.38086	0.24078	-0.23468	-0.001831	-0.040894
13.234	-0.003815	0.022888	0.18768	0.039063	0.018311	-0.027618	-0.26474	-0.011292	0.050812	0.067749	0.067749	0.030823	-0.23132	0.15289	-0.009155	-0.006866	-0.039368	-1.2942	-0.36301	-0.16159	0.28	-0.15121	0.93613	-0.013275	-0.16586	0.096283	0.18936	0.14267	-0.039063	-0.21698	-0.005188	-0.041809
13.235	-0.001984	0.046082	0.25177	0.018311	0.023804	-0.018158	-0.22095	0.000153	0.044556	0.055542	0.092163	0.027771	-0.16678	0.095978	-0.096436	-0.00412	-0.000305	-1.3063	0.13275	-0.063477	0.029755	-0.31281	0.9256	-0.092773	-0.16861	0.051575	0.22324	0.10757	-0.1442	0.58304	-0.001526	-0.022888
13.236	0.005646	0.092773	0.31677	-0.005341	0.021057	-0.035553	-0.15472	-0.010223	0.028687	0.028687	-0.18005	0.027313	0.004272	0.037994	-0.26367	0.023651	0.029144	-1.3431	0.11917	0.18051	-0.2272	-0.1358	0.94055	-0.074005	-0.18845	0.1297	0.45349	0.11841	-0.22049	1.6762	-0.005188	-0.015411
13.237	-0.005341	0.1474	0.26733	-0.026245	0.02533	-0.02121	-0.13367	-0.015717	0.027618	0.054932	-0.33463	0.020752	0.027924	-0.015564	0.12039	-0.00824	0.007324	-1.414	-0.1799	0.30304	-0.52933	0.076294	0.92651	-0.11139	-0.18036	0.1561	0.62225	0.05127	-0.2713	1.3705	-0.009003	-0.018921
13.238	-0.016327	0.30075	0.2121	-0.027771	0.029449	-0.041504	-0.047455	-0.018005	0.025177	0.09201	-0.26886	0.020599	-0.054169	0.027161	-0.070343	-0.018158	-0.031586	-1.5405	0.15472	0.33508	-0.46555	0.10162	0.9346	0.043945	-0.17593	0.013885	0.5574	-0.21103	-0.089874	0.84259	-0.004272	-0.028381
